<mxfile host="65bd71144e">
    <diagram id="xcbblTAlZrjRT_aNGaZx" name="Page-1">
        <mxGraphModel dx="1068" dy="910" grid="1" gridSize="10" guides="1" tooltips="1" connect="1" arrows="1" fold="1" page="1" pageScale="1" pageWidth="850" pageHeight="1100" math="0" shadow="0">
            <root>
                <mxCell id="0"/>
                <mxCell id="1" parent="0"/>
                <mxCell id="16" value="" style="rounded=0;whiteSpace=wrap;html=1;fontSize=13;" vertex="1" parent="1">
                    <mxGeometry x="150" y="360" width="160" height="110" as="geometry"/>
                </mxCell>
                <mxCell id="2" value="postgresql" style="shape=cylinder3;whiteSpace=wrap;html=1;boundedLbl=1;backgroundOutline=1;size=15;" vertex="1" parent="1">
                    <mxGeometry x="267.5" y="590" width="230" height="110" as="geometry"/>
                </mxCell>
                <mxCell id="4" value="" style="rounded=0;whiteSpace=wrap;html=1;align=left;" vertex="1" parent="1">
                    <mxGeometry x="260" y="90" width="225" height="120" as="geometry"/>
                </mxCell>
                <mxCell id="5" value="browser" style="text;html=1;strokeColor=none;fillColor=none;align=center;verticalAlign=middle;whiteSpace=wrap;rounded=0;fontSize=13;" vertex="1" parent="1">
                    <mxGeometry x="260" y="90" width="60" height="30" as="geometry"/>
                </mxCell>
                <mxCell id="6" value="react app" style="ellipse;whiteSpace=wrap;html=1;fontSize=13;" vertex="1" parent="1">
                    <mxGeometry x="308.75" y="110" width="127.5" height="80" as="geometry"/>
                </mxCell>
                <mxCell id="10" value="" style="rounded=0;whiteSpace=wrap;html=1;fontSize=13;" vertex="1" parent="1">
                    <mxGeometry x="470" y="355" width="180" height="100" as="geometry"/>
                </mxCell>
                <mxCell id="8" value="app.js&lt;br&gt;index.js" style="rounded=0;whiteSpace=wrap;html=1;fontSize=13;" vertex="1" parent="1">
                    <mxGeometry x="200" y="390" width="60" height="50" as="geometry"/>
                </mxCell>
                <mxCell id="9" value="index.js" style="rounded=0;whiteSpace=wrap;html=1;fontSize=13;" vertex="1" parent="1">
                    <mxGeometry x="530" y="400" width="60" height="50" as="geometry"/>
                </mxCell>
                <mxCell id="15" value="node/express backend" style="text;html=1;strokeColor=none;fillColor=none;align=center;verticalAlign=middle;whiteSpace=wrap;rounded=0;fontSize=13;" vertex="1" parent="1">
                    <mxGeometry x="475" y="370" width="170" height="30" as="geometry"/>
                </mxCell>
                <mxCell id="17" style="edgeStyle=none;html=1;exitX=1;exitY=0.5;exitDx=0;exitDy=0;entryX=1;entryY=0.75;entryDx=0;entryDy=0;fontSize=13;" edge="1" parent="1" source="8" target="8">
                    <mxGeometry relative="1" as="geometry"/>
                </mxCell>
                <mxCell id="20" value="" style="endArrow=classic;html=1;fontSize=13;exitX=0.455;exitY=0;exitDx=0;exitDy=0;exitPerimeter=0;" edge="1" parent="1" source="16">
                    <mxGeometry width="50" height="50" relative="1" as="geometry">
                        <mxPoint x="190" y="360" as="sourcePoint"/>
                        <mxPoint x="350" y="210" as="targetPoint"/>
                    </mxGeometry>
                </mxCell>
                <mxCell id="25" value="frontend" style="text;html=1;strokeColor=none;fillColor=none;align=center;verticalAlign=middle;whiteSpace=wrap;rounded=0;fontSize=13;" vertex="1" parent="1">
                    <mxGeometry x="165" y="360" width="60" height="30" as="geometry"/>
                </mxCell>
                <mxCell id="26" value="" style="endArrow=classic;startArrow=classic;html=1;fontSize=13;entryX=0.618;entryY=1.033;entryDx=0;entryDy=0;entryPerimeter=0;exitX=0.5;exitY=0;exitDx=0;exitDy=0;" edge="1" parent="1" source="10" target="4">
                    <mxGeometry width="50" height="50" relative="1" as="geometry">
                        <mxPoint x="485" y="320" as="sourcePoint"/>
                        <mxPoint x="535" y="270" as="targetPoint"/>
                    </mxGeometry>
                </mxCell>
                <mxCell id="27" value="" style="endArrow=classic;startArrow=classic;html=1;fontSize=13;entryX=0.45;entryY=1.02;entryDx=0;entryDy=0;entryPerimeter=0;exitX=0.489;exitY=0.182;exitDx=0;exitDy=0;exitPerimeter=0;" edge="1" parent="1" source="2" target="10">
                    <mxGeometry width="50" height="50" relative="1" as="geometry">
                        <mxPoint x="570" y="596.04" as="sourcePoint"/>
                        <mxPoint x="409.04999999999995" y="455" as="targetPoint"/>
                    </mxGeometry>
                </mxCell>
                <mxCell id="28" value="Sequelize ORM" style="text;html=1;strokeColor=none;fillColor=none;align=center;verticalAlign=middle;whiteSpace=wrap;rounded=0;fontSize=13;" vertex="1" parent="1">
                    <mxGeometry x="450" y="510" width="60" height="30" as="geometry"/>
                </mxCell>
                <mxCell id="29" value="GraphQL" style="text;html=1;strokeColor=none;fillColor=none;align=center;verticalAlign=middle;whiteSpace=wrap;rounded=0;fontSize=13;" vertex="1" parent="1">
                    <mxGeometry x="437.5" y="260" width="60" height="30" as="geometry"/>
                </mxCell>
            </root>
        </mxGraphModel>
    </diagram>
</mxfile>